# xmcd
#
# Track frame offsets: 
#        150
#        16688
#        48712
#        81502
#
# Disc length: 1267 seconds
#
# Revision: 0
# Processed by: cddbd v1.5.2PL0 Copyright (c) Steve Scherf et al.
# Submitted via: ExactAudioCopy v0.99pb5
#
DISCID=2a04f104
DTITLE=Raphael Saadiq - Live In Paris (Extra CD)
DYEAR=2010
DGENRE=Soul
TTITLE0=100 Yards Dash (Live Version)
TTITLE1=Let's Take A Walk (Live Version)
TTITLE2=Sure Hope You Mean It (Live Version)
TTITLE3=Love That Girl (featuring Charlie Winston) [BONUS TRACK]
EXTD=
EXTT0=
EXTT1=
EXTT2=
EXTT3=
PLAYORDER=
